<svg width="678" height="100" viewBox="0 0 678 100" fill="none" xmlns="http://www.w3.org/2000/svg">
<path d="M50.5575 30.1816H89.1765C91.833 30.1816 94.0018 27.8817 94.0018 25.0635C94.0018 22.2453 91.833 19.9453 89.1765 19.9453H50.5575C47.9007 19.9453 45.7324 22.2453 45.7324 25.0635C45.7324 27.8817 47.9007 30.1816 50.5575 30.1816Z" fill="#2C7C53"/>
<path d="M61.2277 10.2364H79.7745C82.4311 10.2364 84.5998 7.9364 84.5998 5.11819C84.5998 2.3 82.4228 7.62939e-06 79.7745 7.62939e-06H61.2277C58.5708 7.62939e-06 56.4025 2.3 56.4025 5.11819C56.4025 7.9364 58.5708 10.2364 61.2277 10.2364Z" fill="#2C7C53"/>
<path d="M23.6289 10.2364H42.1756C44.8324 10.2364 47.0008 7.9364 47.0008 5.11819C47.0008 2.3 44.8239 7.62939e-06 42.1756 7.62939e-06H23.6289C20.9721 7.62939e-06 18.8038 2.3 18.8038 5.11819C18.8038 7.9364 20.9721 10.2364 23.6289 10.2364Z" fill="#2C7C53"/>
<path d="M30.9824 29.9003H35.2762C37.9331 29.9003 40.1015 27.6003 40.1015 24.782C40.1015 21.9639 37.9331 19.6639 35.2762 19.6639H30.9824C28.3255 19.6639 26.1572 21.9639 26.1572 24.782C26.1572 27.6003 28.3255 29.9003 30.9824 29.9003Z" fill="#2C7C53"/>
<path d="M98.5696 39.882H59.9594C57.3025 39.882 55.1342 42.182 55.1342 45.0002C55.1342 47.8183 57.3025 50.1184 59.9594 50.1184H98.5785C101.235 50.1184 103.403 47.8183 103.403 45.0002C103.395 42.182 101.227 39.882 98.5696 39.882Z" fill="#2C7C53"/>
<path d="M49.4948 44.7182C49.4948 41.9 47.3265 39.6 44.6696 39.6H33.0223C30.3654 39.6 28.197 41.9 28.197 44.7182C28.197 47.5363 30.3654 49.8364 33.0223 49.8364H44.6696C47.3265 49.8364 49.4948 47.5363 49.4948 44.7182Z" fill="#2C7C53"/>
<path d="M21.2978 44.7182C21.2978 41.9 19.1294 39.6 16.4726 39.6H4.82521C2.16834 39.6 0 41.9 0 44.7182C0 47.5363 2.16834 49.8364 4.82521 49.8364H16.4726C19.1294 49.8364 21.2978 47.5363 21.2978 44.7182Z" fill="#2C7C53"/>
<path d="M89.1676 59.8273H50.5575C47.9007 59.8273 45.7324 62.1273 45.7324 64.9455C45.7324 67.764 47.9007 70.0637 50.5575 70.0637H89.1765C91.833 70.0637 94.0018 67.764 94.0018 64.9455C94.0018 62.1273 91.8248 59.8273 89.1676 59.8273Z" fill="#2C7C53"/>
<path d="M79.7745 79.7635H61.2277C58.5708 79.7635 56.4025 82.0632 56.4025 84.8814C56.4025 87.6996 58.5708 90 61.2277 90H79.7745C82.4311 90 84.5998 87.6996 84.5998 84.8814C84.5998 82.0632 82.4228 79.7635 79.7745 79.7635Z" fill="#2C7C53"/>
<path d="M42.1756 79.7635H23.6289C20.9721 79.7635 18.8038 82.0632 18.8038 84.8814C18.8038 87.6996 20.9721 90 23.6289 90H42.1756C44.8324 90 47.0008 87.6996 47.0008 84.8814C47.0008 82.0632 44.8239 79.7635 42.1756 79.7635Z" fill="#2C7C53"/>
<path d="M30.9824 70.3457H35.2762C37.9331 70.3457 40.1015 68.0454 40.1015 65.2275C40.1015 62.4093 37.9331 60.1093 35.2762 60.1093H30.9824C28.3255 60.1093 26.1572 62.4093 26.1572 65.2275C26.1572 68.0454 28.3255 70.3457 30.9824 70.3457Z" fill="#2C7C53"/>
<path d="M142.954 79V16.4017H152.987L175.984 68.1674H173.232L196.229 16.4017H206.173V79H195.785V32.5618H198.981L177.938 79H171.101L150.057 32.5618H153.342V79H142.954ZM239.481 79.8879C234.864 79.8879 230.868 78.9408 227.494 77.0466C224.12 75.1523 221.486 72.459 219.591 68.9665C217.756 65.474 216.839 61.3304 216.839 56.5356C216.839 51.7409 217.756 47.6268 219.591 44.1935C221.486 40.7011 224.12 38.0077 227.494 36.1135C230.868 34.2192 234.864 33.2721 239.481 33.2721C244.098 33.2721 248.094 34.2192 251.468 36.1135C254.901 38.0077 257.535 40.7011 259.37 44.1935C261.265 47.6268 262.212 51.7409 262.212 56.5356C262.212 61.3304 261.265 65.474 259.37 68.9665C257.535 72.459 254.901 75.1523 251.468 77.0466C248.094 78.9408 244.098 79.8879 239.481 79.8879ZM239.481 71.3639C242.973 71.3639 245.756 70.1504 247.827 67.7234C249.899 65.2372 250.935 61.508 250.935 56.5356C250.935 51.5633 249.899 47.8636 247.827 45.4366C245.756 43.0096 242.973 41.7962 239.481 41.7962C235.988 41.7962 233.206 43.0096 231.134 45.4366C229.063 47.8636 228.027 51.5633 228.027 56.5356C228.027 61.508 229.063 65.2372 231.134 67.7234C233.206 70.1504 235.988 71.3639 239.481 71.3639ZM271.783 79V45.3478C271.783 43.5128 271.724 41.6482 271.606 39.7539C271.487 37.8597 271.31 35.9951 271.073 34.1601H281.817L282.705 43.0392H281.639C283.06 39.9019 285.161 37.5045 287.943 35.8471C290.725 34.1305 293.952 33.2721 297.622 33.2721C302.89 33.2721 306.856 34.752 309.52 37.7117C312.183 40.6715 313.515 45.2886 313.515 51.5633V79H302.416V52.096C302.416 48.4852 301.706 45.9102 300.285 44.3711C298.924 42.7729 296.852 41.9737 294.07 41.9737C290.637 41.9737 287.914 43.0392 285.901 45.1703C283.888 47.3013 282.882 50.1426 282.882 53.6943V79H271.783ZM346.949 79.8879C339.431 79.8879 333.541 77.8161 329.279 73.6725C325.017 69.5289 322.886 63.8462 322.886 56.6244C322.886 51.948 323.804 47.8636 325.639 44.3711C327.474 40.8786 330.019 38.1557 333.275 36.2023C336.59 34.2488 340.438 33.2721 344.818 33.2721C349.139 33.2721 352.75 34.1896 355.651 36.0247C358.551 37.8597 360.741 40.4347 362.221 43.7496C363.76 47.0645 364.53 50.9417 364.53 55.3813V58.3115H331.854V52.4512H356.627L355.118 53.6943C355.118 49.5507 354.23 46.3837 352.454 44.1935C350.737 42.0033 348.222 40.9082 344.907 40.9082C341.237 40.9082 338.395 42.2105 336.383 44.8151C334.429 47.4197 333.453 51.0601 333.453 55.7365V56.8908C333.453 61.7448 334.637 65.3852 337.004 67.8122C339.431 70.18 342.835 71.3639 347.215 71.3639C349.761 71.3639 352.129 71.0383 354.319 70.3872C356.568 69.6768 358.699 68.5521 360.712 67.0131L363.997 74.4716C361.866 76.1883 359.321 77.5201 356.361 78.4672C353.401 79.4144 350.264 79.8879 346.949 79.8879ZM372.347 99.1558L369.772 90.3654C372.554 89.7734 374.892 89.0927 376.787 88.3232C378.681 87.5536 380.249 86.5473 381.493 85.3042C382.736 84.0611 383.772 82.4629 384.6 80.5095L386.82 75.2707L386.554 79.6215L367.019 34.1601H378.829L392.858 69.1441H390.283L404.401 34.1601H415.589L395.167 81.4862C393.805 84.6827 392.325 87.3168 390.727 89.3887C389.129 91.5197 387.412 93.2067 385.577 94.4498C383.742 95.7521 381.729 96.7584 379.539 97.4687C377.349 98.1791 374.952 98.7414 372.347 99.1558ZM442.579 79L414.698 16.4017H427.04L449.504 68.9665H445.775L468.24 16.4017H480.138L452.257 79H442.579ZM485.439 79V34.1601H496.538V79H485.439ZM484.817 25.7248V14.8922H497.159V25.7248H484.817ZM524.573 79.8879C520.726 79.8879 517.174 79.444 513.918 78.556C510.722 77.6089 508.028 76.3066 505.838 74.6492L508.946 67.1907C511.195 68.7297 513.681 69.9136 516.404 70.7423C519.127 71.5711 521.88 71.9854 524.662 71.9854C527.622 71.9854 529.812 71.4823 531.233 70.476C532.712 69.4697 533.452 68.1082 533.452 66.3915C533.452 65.0301 532.979 63.9646 532.032 63.195C531.144 62.3663 529.694 61.7448 527.681 61.3304L518.802 59.6433C515.013 58.8146 512.113 57.394 510.1 55.3813C508.147 53.3687 507.17 50.7346 507.17 47.4788C507.17 44.6967 507.91 42.2401 509.39 40.1091C510.929 37.9781 513.089 36.3207 515.872 35.1368C518.713 33.8937 522.028 33.2721 525.816 33.2721C529.131 33.2721 532.239 33.7161 535.139 34.604C538.099 35.4919 540.585 36.8238 542.598 38.5996L539.401 45.7918C537.566 44.3119 535.465 43.1576 533.097 42.3289C530.729 41.5002 528.421 41.0858 526.171 41.0858C523.093 41.0858 520.844 41.6482 519.423 42.7729C518.003 43.8384 517.292 45.2294 517.292 46.9461C517.292 48.2484 517.707 49.3435 518.535 50.2314C519.423 51.0601 520.785 51.6817 522.62 52.096L531.499 53.7831C535.465 54.5526 538.454 55.9141 540.467 57.8675C542.539 59.7617 543.575 62.3663 543.575 65.6812C543.575 68.6409 542.776 71.1863 541.177 73.3173C539.579 75.4483 537.359 77.0762 534.518 78.2009C531.677 79.3256 528.362 79.8879 524.573 79.8879ZM553.073 79V34.1601H564.172V79H553.073ZM552.452 25.7248V14.8922H564.794V25.7248H552.452ZM596.47 79.8879C591.853 79.8879 587.857 78.9408 584.483 77.0466C581.109 75.1523 578.475 72.459 576.58 68.9665C574.745 65.474 573.828 61.3304 573.828 56.5356C573.828 51.7409 574.745 47.6268 576.58 44.1935C578.475 40.7011 581.109 38.0077 584.483 36.1135C587.857 34.2192 591.853 33.2721 596.47 33.2721C601.087 33.2721 605.083 34.2192 608.457 36.1135C611.89 38.0077 614.524 40.7011 616.359 44.1935C618.253 47.6268 619.2 51.7409 619.2 56.5356C619.2 61.3304 618.253 65.474 616.359 68.9665C614.524 72.459 611.89 75.1523 608.457 77.0466C605.083 78.9408 601.087 79.8879 596.47 79.8879ZM596.47 71.3639C599.962 71.3639 602.744 70.1504 604.816 67.7234C606.888 65.2372 607.924 61.508 607.924 56.5356C607.924 51.5633 606.888 47.8636 604.816 45.4366C602.744 43.0096 599.962 41.7962 596.47 41.7962C592.977 41.7962 590.195 43.0096 588.123 45.4366C586.051 47.8636 585.016 51.5633 585.016 56.5356C585.016 61.508 586.051 65.2372 588.123 67.7234C590.195 70.1504 592.977 71.3639 596.47 71.3639ZM628.772 79V45.3478C628.772 43.5128 628.713 41.6482 628.594 39.7539C628.476 37.8597 628.298 35.9951 628.062 34.1601H638.805L639.693 43.0392H638.628C640.049 39.9019 642.15 37.5045 644.932 35.8471C647.714 34.1305 650.94 33.2721 654.61 33.2721C659.879 33.2721 663.845 34.752 666.509 37.7117C669.172 40.6715 670.504 45.2886 670.504 51.5633V79H659.405V52.096C659.405 48.4852 658.695 45.9102 657.274 44.3711C655.913 42.7729 653.841 41.9737 651.059 41.9737C647.625 41.9737 644.902 43.0392 642.89 45.1703C640.877 47.3013 639.871 50.1426 639.871 53.6943V79H628.772Z" fill="#0E111A"/>
</svg>
